<svg width="41" height="54" viewBox="0 0 41 54" fill="none" xmlns="http://www.w3.org/2000/svg">
<path d="M17.5714 35.997H23.4286V28.4492H30.75V22.4109H23.4286V14.8631H17.5714V22.4109H10.25V28.4492H17.5714V35.997ZM20.5 53.997C14.6155 52.1956 9.72774 48.5213 5.83664 42.9742C1.94555 37.427 0 31.1765 0 24.2224V7.895L20.5 0L41 7.895V24.2224C41 31.1744 39.0545 37.424 35.1634 42.9711C31.2723 48.5183 26.3845 52.1915 20.5 53.997ZM20.5 50.7937C25.5762 49.1332 29.7738 45.8121 33.0929 40.8306C36.4119 35.849 38.0714 30.314 38.0714 24.2254V9.95706L20.5 3.22442L2.92857 9.95706V24.2224C2.92857 30.311 4.58809 35.846 7.90714 40.8276C11.2262 45.8091 15.4238 49.1332 20.5 50.7937Z" fill="#16A4AD"/>
</svg>
