<svg width="202" height="211" viewBox="0 0 202 211" fill="none" xmlns="http://www.w3.org/2000/svg">
<g filter="url(#filter0_d_5792_2744)">
<rect width="118.929" height="118.668" rx="15" transform="matrix(0.830287 -0.537354 0.515209 0.869788 21.4688 85.5322)" fill="#3DBCAA"/>
</g>
<path d="M114.976 75.7546C118.715 77.3462 121.976 79.5488 124.757 82.3625C127.539 85.1762 129.756 88.3704 131.41 91.9453C133.064 95.5231 134.077 99.353 134.447 103.435C134.82 107.515 134.444 111.585 133.32 115.645C131.044 123.866 126.469 130.204 119.594 134.66C112.72 139.117 105.31 140.599 97.3654 139.109L98.3515 135.548C105.382 136.618 111.908 135.19 117.928 131.263C123.949 127.337 127.951 121.789 129.933 114.62C131.915 107.451 131.377 100.53 128.318 93.8571C125.259 87.1839 120.483 82.337 113.99 79.3163L114.976 75.7546ZM108.732 91.6771L102.17 115.377L115.709 107.578L117.407 110.831L98.5929 121.669L88.2242 102.003L91.3366 100.228L98.7834 114.352L105.345 90.6525L108.732 91.6771ZM108.202 73.7053L107.216 77.2671C104.683 76.8692 102.172 76.8002 99.6819 77.06C97.1922 77.3198 94.7758 77.9509 92.4328 78.9535L90.5905 75.6373C93.4162 74.5353 96.3101 73.8324 99.272 73.5287C102.237 73.2234 105.214 73.2823 108.202 73.7053ZM79.9317 123.668C81.4579 125.792 83.1931 127.692 85.1373 129.367C87.0815 131.042 89.2278 132.421 91.5763 133.502L90.5912 137.06C87.8345 135.791 85.2948 134.194 82.972 132.269C80.6498 130.341 78.5769 128.123 76.7533 125.614L79.9317 123.668ZM84.433 79.3153L86.1515 82.5748C84.1322 84.1229 82.3414 85.9242 80.779 87.9789C79.2165 90.0335 77.9198 92.2862 76.8889 94.737L73.4815 93.7062C74.6501 90.8111 76.1731 88.1434 78.0503 85.703C79.9304 83.261 82.0587 81.1294 84.433 79.3153ZM74.9284 101.818C74.5478 104.465 74.493 107.094 74.7642 109.703C75.0353 112.312 75.6289 114.835 76.5451 117.271L73.2609 119.163C72.2917 116.238 71.6577 113.225 71.3588 110.123C71.0644 107.024 71.1185 103.911 71.521 100.787L74.9284 101.818Z" fill="white"/>
<defs>
<filter id="filter0_d_5792_2744" x="0.392187" y="7.79453" width="196.036" height="202.785" filterUnits="userSpaceOnUse" color-interpolation-filters="sRGB">
<feFlood flood-opacity="0" result="BackgroundImageFix"/>
<feColorMatrix in="SourceAlpha" type="matrix" values="0 0 0 0 0 0 0 0 0 0 0 0 0 0 0 0 0 0 127 0" result="hardAlpha"/>
<feOffset dx="-3" dy="4"/>
<feGaussianBlur stdDeviation="11.8"/>
<feComposite in2="hardAlpha" operator="out"/>
<feColorMatrix type="matrix" values="0 0 0 0 0 0 0 0 0 0 0 0 0 0 0 0 0 0 0.25 0"/>
<feBlend mode="normal" in2="BackgroundImageFix" result="effect1_dropShadow_5792_2744"/>
<feBlend mode="normal" in="SourceGraphic" in2="effect1_dropShadow_5792_2744" result="shape"/>
</filter>
</defs>
</svg>
