<svg width="36" height="46" viewBox="0 0 36 46" fill="none" xmlns="http://www.w3.org/2000/svg">
<path d="M10.5332 35.6483L10.2197 42.0038L10.1543 43.3173L11.2363 42.5692L18.0186 37.8768L24.7607 42.5634L25.8438 43.3163L25.7793 41.9989L25.4658 35.6483H27.1709L27.625 44.8514H25.0693L18.3857 40.2069L18.0166 39.9501L17.6465 40.2059L10.9307 44.8514H8.37402L8.82812 35.6483H10.5332ZM21.7051 3.15808L21.832 3.22351L21.9746 3.23035L26.1436 3.42078L28.3936 6.93738L28.4707 7.0575L28.5908 7.13367L32.1055 9.38269L32.2959 13.5526L32.3027 13.6952L32.3682 13.8212L34.2871 17.5272L32.3682 21.2343L32.3027 21.3602L32.2959 21.5028L32.1045 25.6718L28.5898 27.9218L28.4697 27.9979L28.3936 28.118L26.1436 31.6327L21.9746 31.8241L21.832 31.8309L21.7051 31.8964L17.999 33.8153L14.293 31.8964L14.167 31.8309L14.0244 31.8241L9.85449 31.6327L7.60547 28.118L7.52832 27.9979L7.4082 27.9218L3.89355 25.6718L3.70312 21.5028L3.69629 21.3602L3.63086 21.2333L1.71094 17.5272L3.63086 13.8212L3.69629 13.6952L3.70312 13.5526L3.89258 9.38269L7.4082 7.13367L7.52832 7.0575L7.60547 6.93738L9.85449 3.42175L14.0244 3.23132L14.167 3.22449L14.2939 3.15906L17.999 1.23914L21.7051 3.15808ZM17.7012 3.3114L14.6152 4.90808L11.1494 5.06726L10.8145 5.08191L10.6328 5.36511L8.76074 8.28894L5.83691 10.161L5.55469 10.3427L5.53906 10.6776L5.37988 14.1444L3.7832 17.2294L3.62793 17.5272L3.7832 17.826L5.37988 20.9091L5.53906 24.3778L5.55469 24.7128L5.83691 24.8944L8.76074 26.7655L10.6328 29.6903L10.8145 29.9735L11.1494 29.9882L14.6172 30.1464L17.7012 31.744L17.999 31.8983L18.2979 31.744L21.3799 30.1464L24.8486 29.9882L25.1846 29.9735L25.3652 29.6903L27.2354 26.7665L30.1611 24.8944L30.4443 24.7128L30.46 24.3778L30.6182 20.9081L32.2158 17.826L32.3711 17.5272L32.2158 17.2294L30.6182 14.1454L30.46 10.6776L30.4443 10.3427L30.1611 10.161L27.2373 8.28894L25.3662 5.36511L25.1846 5.08191L24.8496 5.06726L21.3818 4.90808L18.2979 3.3114L17.999 3.1571L17.7012 3.3114Z" fill="#6FD0F1" stroke="#6FD0F1" stroke-width="1.2973"/>
</svg>
