<svg width="49" height="51" viewBox="0 0 49 51" fill="none" xmlns="http://www.w3.org/2000/svg">
<path d="M22.1163 49.5C12.6353 49.5 7.89237 49.5 4.945 46.7165C2 43.9354 2 39.4561 2 30.5V21C2 12.0439 2 7.56462 4.945 4.7835C7.89237 2 12.6353 2 22.1163 2H24.6337C34.1171 2 38.8576 2 41.805 4.7835C44.75 7.56462 44.75 12.0439 44.75 21M22.1875 49.5H25.75M13.875 13.875H32.875M13.875 25.75H25.75" stroke="#16A4AD" stroke-width="2.5" stroke-linecap="round" stroke-linejoin="round"/>
<path d="M36.4336 41.4015L34.2913 48.8899C34.2698 48.9748 34.2721 49.064 34.2981 49.1477C34.3241 49.2314 34.3727 49.3062 34.4385 49.364C34.5044 49.4218 34.585 49.4602 34.6713 49.475C34.7577 49.4898 34.8465 49.4805 34.9278 49.448L39.6422 47.5646C39.8693 47.4735 40.1229 47.4735 40.35 47.5646L45.1095 49.4646C45.1891 49.4964 45.2758 49.506 45.3605 49.4924C45.4452 49.4789 45.5246 49.4427 45.5903 49.3877C45.6561 49.3326 45.7057 49.2608 45.7339 49.1799C45.7622 49.0989 45.768 49.0119 45.7507 48.9279L43.9362 41.1664M47.1211 35.2384C47.1179 33.3508 46.3659 31.5415 45.03 30.2079C43.6942 28.8743 41.8837 28.1252 39.9961 28.1252C36.0607 28.1252 32.8711 31.3101 32.8711 35.2384C32.8717 36.1733 33.0565 37.099 33.415 37.9624C33.7734 38.8259 34.2984 39.6104 34.9601 40.2709C35.6217 40.9315 36.407 41.4552 37.2711 41.8122C38.1352 42.1692 39.0612 42.3524 39.9961 42.3515C43.9315 42.3515 47.1211 39.169 47.1211 35.2384Z" stroke="#16A4AD" stroke-width="2.5" stroke-linecap="round" stroke-linejoin="round"/>
</svg>
