<svg width="52" height="52" viewBox="0 0 52 52" fill="none" xmlns="http://www.w3.org/2000/svg">
<path d="M26.0633 33.2866C28.7217 33.2866 30.8767 31.1316 30.8767 28.4732C30.8767 25.8149 28.7217 23.6599 26.0633 23.6599C23.405 23.6599 21.25 25.8149 21.25 28.4732C21.25 31.1316 23.405 33.2866 26.0633 33.2866Z" stroke="#16A4AD" stroke-width="2.5"/>
<path d="M24.2539 39.303C24.2539 39.7818 24.4441 40.2409 24.7826 40.5794C25.1211 40.9179 25.5802 41.108 26.0589 41.108C26.5376 41.108 26.9967 40.9179 27.3352 40.5794C27.6737 40.2409 27.8639 39.7818 27.8639 39.303H24.2539ZM24.2539 33.2864V39.303H27.8639V33.2864H24.2539Z" fill="#16A4AD"/>
<path d="M50.1333 25.5805C50.1333 19.2462 50.1333 16.0766 48.2802 14.0189C48.1102 13.829 47.9302 13.6483 47.7411 13.4774C45.6834 11.6267 42.5138 11.6267 36.1795 11.6267H35.2794C32.5045 11.6267 31.1159 11.6267 29.8211 11.2584C29.1105 11.0553 28.4257 10.7711 27.7802 10.4113C26.6058 9.75909 25.6238 8.77477 23.66 6.81333L22.3363 5.48967C21.6769 4.83024 21.3496 4.50293 21.003 4.21413C19.5125 2.97865 17.6841 2.22128 15.7565 2.04091C15.3089 2 14.842 2 13.913 2C11.7879 2 10.7266 2 9.84092 2.16847C7.93927 2.5276 6.19 3.45155 4.82135 4.81977C3.45269 6.188 2.5282 7.93697 2.16847 9.83851C2 10.7266 2 11.7903 2 13.913M50.1117 35.6933C50.025 41.6619 49.5822 45.0432 47.3127 47.3127C44.4945 50.1333 39.9555 50.1333 30.88 50.1333H21.2533C12.1778 50.1333 7.63882 50.1333 4.82061 47.3127C2.00241 44.4921 2 39.9555 2 30.88V23.66" stroke="#16A4AD" stroke-width="2.5" stroke-linecap="round"/>
</svg>
