<svg width="1920" height="610" viewBox="0 0 1920 610" fill="none" xmlns="http://www.w3.org/2000/svg">
<path d="M1925.77 353.695C1922.81 328.383 1903.4 308.115 1878.24 304.054L0.25 0.914062V611.102L1893.53 630.342C1927.87 630.691 1954.72 600.821 1950.72 566.714L1925.77 353.695Z" fill="url(#paint0_linear_5792_3007)"/>
<path d="M1514.13 246.091L1191.25 193.658L1417.75 611.432H1727.25L1514.13 246.091Z" fill="url(#paint1_linear_5792_3007)"/>
<path d="M1191.45 193.284L836.25 135.932L1091.27 611.3L1428.25 611.432L1191.45 193.284Z" fill="url(#paint2_linear_5792_3007)"/>
<path d="M836.262 136.289L333.25 54.7258L555.561 606.638L1091.25 611.432L836.262 136.289Z" fill="url(#paint3_linear_5792_3007)"/>
<defs>
<linearGradient id="paint0_linear_5792_3007" x1="140.645" y1="108.64" x2="214.326" y2="489.7" gradientUnits="userSpaceOnUse">
<stop stop-color="#17A4AD"/>
<stop offset="1" stop-color="#3DBCAA"/>
</linearGradient>
<linearGradient id="paint1_linear_5792_3007" x1="1435.42" y1="517.465" x2="1284.98" y2="150.02" gradientUnits="userSpaceOnUse">
<stop stop-color="#3EBDAB"/>
<stop offset="1" stop-color="#18A5AD"/>
</linearGradient>
<linearGradient id="paint2_linear_5792_3007" x1="1061.26" y1="491.592" x2="969.502" y2="141.075" gradientUnits="userSpaceOnUse">
<stop stop-color="#3EBDAB"/>
<stop offset="1" stop-color="#18A5AD"/>
</linearGradient>
<linearGradient id="paint3_linear_5792_3007" x1="670.734" y1="464.08" x2="614.1" y2="152.222" gradientUnits="userSpaceOnUse">
<stop stop-color="#3EBDAB"/>
<stop offset="1" stop-color="#18A5AD"/>
</linearGradient>
</defs>
</svg>
