<svg width="57" height="54" viewBox="0 0 57 54" fill="none" xmlns="http://www.w3.org/2000/svg">
<rect width="57" height="54" rx="11" fill="white" fill-opacity="0.3"/>
<path d="M43.1913 33.9016V18.806L28.0957 16.29L13 18.806V33.9016C13 35.5698 13.6627 37.1697 14.8423 38.3492C16.0218 39.5288 17.6217 40.1915 19.2899 40.1915H36.9014C38.5696 40.1915 40.1695 39.5288 41.349 38.3492C42.5286 37.1697 43.1913 35.5698 43.1913 33.9016Z" fill="white"/>
<path d="M43.1913 33.9016V18.806L28.0957 16.29L13 18.806V33.9016C13 35.5698 13.6627 37.1697 14.8423 38.3492C16.0218 39.5288 17.6217 40.1915 19.2899 40.1915H36.9014C38.5696 40.1915 40.1695 39.5288 41.349 38.3492C42.5286 37.1697 43.1913 35.5698 43.1913 33.9016Z" fill="url(#paint0_linear_4187_2651)"/>
<path d="M43.1913 33.9016V18.806L28.0957 16.29L13 18.806V33.9016C13 35.5698 13.6627 37.1697 14.8423 38.3492C16.0218 39.5288 17.6217 40.1915 19.2899 40.1915H36.9014C38.5696 40.1915 40.1695 39.5288 41.349 38.3492C42.5286 37.1697 43.1913 35.5698 43.1913 33.9016Z" fill="url(#paint1_radial_4187_2651)" fill-opacity="0.3"/>
<path d="M43.1913 33.9016V18.806L28.0957 16.29L13 18.806V33.9016C13 35.5698 13.6627 37.1697 14.8423 38.3492C16.0218 39.5288 17.6217 40.1915 19.2899 40.1915H36.9014C38.5696 40.1915 40.1695 39.5288 41.349 38.3492C42.5286 37.1697 43.1913 35.5698 43.1913 33.9016Z" fill="url(#paint2_radial_4187_2651)" fill-opacity="0.3"/>
<path d="M43.1913 33.9016V18.806L28.0957 16.29L13 18.806V33.9016C13 35.5698 13.6627 37.1697 14.8423 38.3492C16.0218 39.5288 17.6217 40.1915 19.2899 40.1915H36.9014C38.5696 40.1915 40.1695 39.5288 41.349 38.3492C42.5286 37.1697 43.1913 35.5698 43.1913 33.9016Z" fill="url(#paint3_radial_4187_2651)" fill-opacity="0.3"/>
<path d="M43.1913 16.2899C43.1913 14.6217 42.5286 13.0218 41.349 11.8423C40.1695 10.6627 38.5696 10 36.9014 10H19.2899C17.6217 10 16.0218 10.6627 14.8423 11.8423C13.6627 13.0218 13 14.6217 13 16.2899V20.0638H43.1913V16.2899Z" fill="#6FD0F1"/>
<path d="M43.1914 30.1273C43.1914 29.46 43.4565 28.8201 43.9283 28.3482C44.4001 27.8764 45.0401 27.6113 45.7073 27.6113C46.3746 27.6113 47.0146 27.8764 47.4864 28.3482C47.9582 28.8201 48.2233 29.46 48.2233 30.1273V42.707C48.2233 43.3742 47.9582 44.0142 47.4864 44.486C47.0146 44.9578 46.3746 45.2229 45.7073 45.2229C45.0401 45.2229 44.4001 44.9578 43.9283 44.486C43.4565 44.0142 43.1914 43.3742 43.1914 42.707V30.1273Z" fill="url(#paint4_linear_4187_2651)"/>
<path d="M38.1605 22.5801C37.4932 22.5801 36.8533 22.8452 36.3814 23.317C35.9096 23.7888 35.6445 24.4288 35.6445 25.096V42.7076C35.6445 43.3749 35.9096 44.0148 36.3814 44.4867C36.8533 44.9585 37.4932 45.2236 38.1605 45.2236C38.8277 45.2236 39.4677 44.9585 39.9395 44.4867C40.4113 44.0148 40.6764 43.3749 40.6764 42.7076V25.096C40.6764 24.4288 40.4113 23.7888 39.9395 23.317C39.4677 22.8452 38.8277 22.5801 38.1605 22.5801Z" fill="url(#paint5_linear_4187_2651)"/>
<path d="M30.6136 32.6436C29.9463 32.6436 29.3064 32.9086 28.8346 33.3805C28.3627 33.8523 28.0977 34.4922 28.0977 35.1595V42.7073C28.0977 43.3746 28.3627 44.0145 28.8346 44.4864C29.3064 44.9582 29.9463 45.2233 30.6136 45.2233C31.2809 45.2233 31.9208 44.9582 32.3926 44.4864C32.8645 44.0145 33.1295 43.3746 33.1295 42.7073V35.1595C33.1295 34.4922 32.8645 33.8523 32.3926 33.3805C31.9208 32.9086 31.2809 32.6436 30.6136 32.6436Z" fill="url(#paint6_linear_4187_2651)"/>
<defs>
<linearGradient id="paint0_linear_4187_2651" x1="31.3312" y1="26.067" x2="35.7064" y2="45.6108" gradientUnits="userSpaceOnUse">
<stop stop-color="#DCF8FF" stop-opacity="0"/>
<stop offset="1" stop-color="#FF6CE8" stop-opacity="0.7"/>
</linearGradient>
<radialGradient id="paint1_radial_4187_2651" cx="0" cy="0" r="1" gradientUnits="userSpaceOnUse" gradientTransform="translate(30.6116 41.4495) rotate(86.8779) scale(8.66141 4.29812)">
<stop offset="0.535" stop-color="#4A43CB"/>
<stop offset="1" stop-color="#4A43CB" stop-opacity="0"/>
</radialGradient>
<radialGradient id="paint2_radial_4187_2651" cx="0" cy="0" r="1" gradientUnits="userSpaceOnUse" gradientTransform="translate(38.1594 36.4176) rotate(90) scale(15.0957 4.97004)">
<stop offset="0.535" stop-color="#4A43CB"/>
<stop offset="1" stop-color="#4A43CB" stop-opacity="0"/>
</radialGradient>
<radialGradient id="paint3_radial_4187_2651" cx="0" cy="0" r="1" gradientUnits="userSpaceOnUse" gradientTransform="translate(45.7072 36.4176) rotate(90) scale(12.5797 4.14169)">
<stop offset="0.535" stop-color="#4A43CB"/>
<stop offset="1" stop-color="#4A43CB" stop-opacity="0"/>
</radialGradient>
<linearGradient id="paint4_linear_4187_2651" x1="47.8031" y1="41.995" x2="45.1161" y2="27.4277" gradientUnits="userSpaceOnUse">
<stop stop-color="#6FD0F1"/>
<stop offset="1" stop-color="#1C71EA"/>
</linearGradient>
<linearGradient id="paint5_linear_4187_2651" x1="41.9344" y1="47.7395" x2="37.8108" y2="22.804" gradientUnits="userSpaceOnUse">
<stop stop-color="#2790B0"/>
<stop offset="1" stop-color="#6FD0F1"/>
</linearGradient>
<linearGradient id="paint6_linear_4187_2651" x1="28.7266" y1="33.1669" x2="39.3364" y2="38.1887" gradientUnits="userSpaceOnUse">
<stop stop-color="#16BBDA"/>
<stop offset="1" stop-color="#2052CB"/>
</linearGradient>
</defs>
</svg>
