<svg width="57" height="54" viewBox="0 0 57 54" fill="none" xmlns="http://www.w3.org/2000/svg">
<rect width="57" height="54" rx="11" fill="white" fill-opacity="0.3"/>
<path d="M24.8377 15.3561C24.8377 14.2944 23.9319 13.3723 22.7847 13.4943C16.1589 14.2063 11 19.8131 11 26.6275C11 33.9237 16.9137 39.8362 24.2087 39.8362C31.0231 39.8362 36.6312 34.6773 37.3419 28.0515C37.4652 26.903 36.5418 25.9985 35.4801 25.9985H28.6116C27.6107 25.9985 26.6508 25.6009 25.943 24.8932C25.2353 24.1854 24.8377 23.2255 24.8377 22.2246V15.3561Z" fill="white"/>
<path d="M29.2385 8.3877C29.0062 8.3877 28.7747 8.39357 28.5441 8.40531C28.2222 8.42207 27.9189 8.5618 27.697 8.79565C27.4751 9.02951 27.3514 9.33963 27.3516 9.66202V20.9674C27.3516 21.6347 27.6166 22.2746 28.0885 22.7464C28.5603 23.2183 29.2002 23.4833 29.8675 23.4833H41.1729C41.4953 23.4835 41.8054 23.3598 42.0393 23.1379C42.2731 22.916 42.4128 22.6127 42.4296 22.2908C42.4413 22.061 42.4472 21.8295 42.4472 21.5964C42.4472 14.3014 36.5335 8.3877 29.2385 8.3877Z" fill="#6FD0F1"/>
<path d="M43.7073 25.999C43.0401 25.999 42.4001 26.2641 41.9283 26.7359C41.4565 27.2078 41.1914 27.8477 41.1914 28.515V42.3526C41.1914 43.0199 41.4565 43.6599 41.9283 44.1317C42.4001 44.6035 43.0401 44.8686 43.7073 44.8686C44.3746 44.8686 45.0146 44.6035 45.4864 44.1317C45.9582 43.6599 46.2233 43.0199 46.2233 42.3526V28.515C46.2233 27.8477 45.9582 27.2078 45.4864 26.7359C45.0146 26.2641 44.3746 25.999 43.7073 25.999Z" fill="url(#paint0_linear_4187_2663)"/>
<path d="M37.4183 31.0312C36.751 31.0312 36.1111 31.2963 35.6392 31.7682C35.1674 32.24 34.9023 32.8799 34.9023 33.5472V42.353C34.9023 43.0203 35.1674 43.6602 35.6392 44.132C36.1111 44.6039 36.751 44.8689 37.4183 44.8689C38.0856 44.8689 38.7255 44.6039 39.1973 44.132C39.6692 43.6602 39.9342 43.0203 39.9342 42.353V33.5472C39.9342 32.8799 39.6692 32.24 39.1973 31.7682C38.7255 31.2963 38.0856 31.0312 37.4183 31.0312Z" fill="url(#paint1_linear_4187_2663)"/>
<path d="M28.6133 37.3206C28.6133 36.6534 28.8784 36.0134 29.3502 35.5416C29.822 35.0698 30.462 34.8047 31.1292 34.8047C31.7965 34.8047 32.4364 35.0698 32.9083 35.5416C33.3801 36.0134 33.6452 36.6534 33.6452 37.3206V42.3525C33.6452 43.0198 33.3801 43.6597 32.9083 44.1316C32.4364 44.6034 31.7965 44.8685 31.1292 44.8685C30.462 44.8685 29.822 44.6034 29.3502 44.1316C28.8784 43.6597 28.6133 43.0198 28.6133 42.3525V37.3206Z" fill="url(#paint2_linear_4187_2663)"/>
<defs>
<linearGradient id="paint0_linear_4187_2663" x1="45.5616" y1="20.2036" x2="58.7502" y2="26.7702" gradientUnits="userSpaceOnUse">
<stop stop-color="#16BBDA"/>
<stop offset="1" stop-color="#0067BF"/>
</linearGradient>
<linearGradient id="paint1_linear_4187_2663" x1="36.1603" y1="32.02" x2="44.9875" y2="37.8331" gradientUnits="userSpaceOnUse">
<stop stop-color="#16BBDA"/>
<stop offset="1" stop-color="#0067BF"/>
</linearGradient>
<linearGradient id="paint2_linear_4187_2663" x1="29.8713" y1="33.5467" x2="35.6982" y2="38.3207" gradientUnits="userSpaceOnUse">
<stop stop-color="#16BBDA"/>
<stop offset="1" stop-color="#0067BF"/>
</linearGradient>
</defs>
</svg>
