<svg width="51" height="46" viewBox="0 0 51 46" fill="none" xmlns="http://www.w3.org/2000/svg">
<path d="M40.6886 15.9283H35.9713H40.6886ZM35.9713 15.9283H31.2539H35.9713ZM35.9713 15.9283V11.2109V15.9283ZM35.9713 15.9283V20.6456V15.9283Z" fill="#1AA6AD"/>
<path d="M40.6886 15.9283H35.9713M35.9713 15.9283H31.2539M35.9713 15.9283V11.2109M35.9713 15.9283V20.6456" stroke="#1AA6AD" stroke-width="1.5" stroke-linecap="round"/>
<path d="M25.3557 7.84609L24.0632 9.05373C24.2287 9.23085 24.4288 9.37206 24.6512 9.46861C24.8735 9.56516 25.1133 9.61498 25.3557 9.61498C25.5982 9.61498 25.838 9.56516 26.0603 9.46861C26.2827 9.37206 26.4828 9.23085 26.6483 9.05373L25.3557 7.84609ZM3.30686 26.9702C3.42356 27.1759 3.5803 27.356 3.76782 27.5C3.95534 27.6441 4.16982 27.749 4.3986 27.8087C4.62738 27.8685 4.86581 27.8817 5.0998 27.8477C5.33378 27.8137 5.55858 27.7331 5.76089 27.6108C5.96321 27.4884 6.13894 27.3267 6.2777 27.1353C6.41646 26.9438 6.51544 26.7265 6.56878 26.4962C6.62212 26.2658 6.62874 26.0271 6.58825 25.7941C6.54776 25.5612 6.46098 25.3387 6.33304 25.1399L3.30686 26.9702ZM12.4703 32.841C12.3105 32.6657 12.117 32.5244 11.9015 32.4254C11.6859 32.3265 11.4527 32.2719 11.2156 32.2649C10.9785 32.2578 10.7425 32.2986 10.5215 32.3846C10.3004 32.4707 10.099 32.6003 9.92908 32.7658C9.75917 32.9313 9.62427 33.1292 9.5324 33.3479C9.44053 33.5666 9.39358 33.8015 9.39433 34.0387C9.39507 34.2758 9.44351 34.5105 9.53675 34.7285C9.63 34.9466 9.76614 35.1437 9.93709 35.3081L12.4703 32.841ZM3.53801 16.677C3.53801 9.82502 6.52881 5.5912 10.2272 4.14061C13.9185 2.69475 19.0817 3.72785 24.0632 9.05373L26.6483 6.63845C21.0158 0.614396 14.3856 -1.2867 8.93702 0.845546C3.49556 2.97779 0 8.83202 0 16.677H3.53801ZM33.6347 41.778C37.1562 38.9216 41.3735 35.0935 44.7275 30.8172C48.0462 26.5858 50.7115 21.6679 50.7115 16.6722H47.1735C47.1735 20.4744 45.0978 24.6068 41.9419 28.6331C38.8191 32.6169 34.8282 36.2563 31.4081 39.0301L33.6347 41.778ZM50.7115 16.6722C50.7115 8.82966 47.2159 2.97543 41.7721 0.845546C36.3236 -1.28905 29.6957 0.609679 24.0632 6.63609L26.6483 9.05373C31.6298 3.72785 36.793 2.69239 40.4843 4.13826C44.1827 5.58648 47.1735 9.82266 47.1735 16.6722H50.7115ZM17.0768 41.7803C20.0723 44.2145 22.1527 46 25.3557 46V42.462C23.6504 42.462 22.589 41.6978 19.3034 39.0325L17.0768 41.7803ZM31.4081 39.0301C28.1225 41.6954 27.0611 42.462 25.3557 42.462V46C28.5588 46 30.6415 44.2145 33.6371 41.7803L31.4081 39.0301ZM6.3354 25.1399C4.56875 22.2246 3.53801 19.3588 3.53801 16.677H0C0 20.2433 1.3586 23.753 3.30686 26.9702L6.3354 25.1399ZM19.3034 39.0325C16.9088 37.1014 14.6274 35.0341 12.4703 32.841L9.93709 35.3081C12.1882 37.6026 14.5737 39.7637 17.0768 41.7803L19.3034 39.0325Z" fill="#1AA6AD"/>
</svg>
