<svg width="52" height="52" viewBox="0 0 52 52" fill="none" xmlns="http://www.w3.org/2000/svg">
<path d="M9.94404 19.8885C9.56727 19.8885 9.20594 20.0381 8.93952 20.3046C8.67311 20.571 8.52344 20.9323 8.52344 21.3091C8.52344 21.6858 8.67311 22.0472 8.93952 22.3136C9.20594 22.58 9.56727 22.7297 9.94404 22.7297H11.3646V28.4121H9.94404C9.56727 28.4121 9.20594 28.5618 8.93952 28.8282C8.67311 29.0946 8.52344 29.4559 8.52344 29.8327C8.52344 30.2095 8.67311 30.5708 8.93952 30.8372C9.20594 31.1036 9.56727 31.2533 9.94404 31.2533H15.6264C16.0032 31.2533 16.3646 31.1036 16.631 30.8372C16.8974 30.5708 17.047 30.2095 17.047 29.8327C17.047 29.4559 16.8974 29.0946 16.631 28.8282C16.3646 28.5618 16.0032 28.4121 15.6264 28.4121H14.2058V22.7297H15.6264C16.0032 22.7297 16.3646 22.58 16.631 22.3136C16.8974 22.0472 17.047 21.6858 17.047 21.3091C17.047 20.9323 16.8974 20.571 16.631 20.3046C16.3646 20.0381 16.0032 19.8885 15.6264 19.8885H9.94404ZM28.2073 23.2553C27.7702 22.8182 27.2134 22.5204 26.6071 22.3998C26.0008 22.2792 25.3724 22.341 24.8013 22.5776C24.2302 22.8141 23.742 23.2147 23.3986 23.7287C23.0552 24.2426 22.8718 24.8469 22.8718 25.465C22.8718 26.0832 23.0552 26.6875 23.3986 27.2014C23.742 27.7154 24.2302 28.116 24.8013 28.3525C25.3724 28.5891 26.0008 28.6509 26.6071 28.5303C27.2134 28.4096 27.7702 28.1119 28.2073 27.6748C28.4752 27.416 28.8341 27.2728 29.2065 27.2761C29.579 27.2793 29.9353 27.4287 30.1987 27.6921C30.4621 27.9555 30.6115 28.3118 30.6148 28.6843C30.618 29.0567 30.4748 29.4156 30.216 29.6835C29.3816 30.5179 28.3184 31.0861 27.1611 31.3163C26.0037 31.5464 24.804 31.4282 23.7138 30.9766C22.6236 30.525 21.6918 29.7603 21.0362 28.7791C20.3807 27.7979 20.0307 26.6444 20.0307 25.4643C20.0307 24.2843 20.3807 23.1308 21.0362 22.1496C21.6918 21.1684 22.6236 20.4036 23.7138 19.952C24.804 19.5004 26.0037 19.3822 27.1611 19.6124C28.3184 19.8426 29.3816 20.4108 30.216 21.2451C30.4826 21.5115 30.6324 21.8729 30.6326 22.2497C30.6327 22.6266 30.4831 22.988 30.2167 23.2546C29.9504 23.5211 29.589 23.671 29.2122 23.6711C28.8353 23.6712 28.4739 23.5217 28.2073 23.2553Z" fill="#16A4AD"/>
<path fill-rule="evenodd" clip-rule="evenodd" d="M35.5104 19.8884C35.1337 19.8884 34.7723 20.0381 34.5059 20.3045C34.2395 20.5709 34.0898 20.9323 34.0898 21.309V29.8326C34.0898 30.2094 34.2395 30.5707 34.5059 30.8372C34.7723 31.1036 35.1337 31.2532 35.5104 31.2532H38.3516C39.8587 31.2532 41.3041 30.6546 42.3697 29.5889C43.4354 28.5232 44.0341 27.0779 44.0341 25.5708C44.0341 24.0638 43.4354 22.6184 42.3697 21.5528C41.3041 20.4871 39.8587 19.8884 38.3516 19.8884H35.5104ZM36.931 28.412V22.7296H38.3516C39.1052 22.7296 39.8279 23.029 40.3607 23.5618C40.8935 24.0946 41.1929 24.8173 41.1929 25.5708C41.1929 26.3244 40.8935 27.047 40.3607 27.5799C39.8279 28.1127 39.1052 28.412 38.3516 28.412H36.931Z" fill="#16A4AD"/>
<path fill-rule="evenodd" clip-rule="evenodd" d="M0 4.26181C0 3.1315 0.44901 2.0475 1.24825 1.24825C2.0475 0.44901 3.1315 0 4.26181 0H46.8799C48.0102 0 49.0942 0.44901 49.8934 1.24825C50.6927 2.0475 51.1417 3.1315 51.1417 4.26181V46.8799C51.1417 48.0102 50.6927 49.0942 49.8934 49.8934C49.0942 50.6927 48.0102 51.1417 46.8799 51.1417H4.26181C3.1315 51.1417 2.0475 50.6927 1.24825 49.8934C0.44901 49.0942 0 48.0102 0 46.8799V4.26181ZM4.26181 2.8412H46.8799C47.2566 2.8412 47.618 2.99087 47.8844 3.25729C48.1508 3.5237 48.3005 3.88504 48.3005 4.26181V46.8799C48.3005 47.2566 48.1508 47.618 47.8844 47.8844C47.618 48.1508 47.2566 48.3005 46.8799 48.3005H4.26181C3.88504 48.3005 3.5237 48.1508 3.25729 47.8844C2.99087 47.618 2.8412 47.2566 2.8412 46.8799V4.26181C2.8412 3.88504 2.99087 3.5237 3.25729 3.25729C3.5237 2.99087 3.88504 2.8412 4.26181 2.8412Z" fill="#16A4AD"/>
</svg>
