<svg width="915" height="830" viewBox="0 0 915 830" fill="none" xmlns="http://www.w3.org/2000/svg">
<path d="M702.02 286.943C718.099 279.531 736.172 292.305 734.552 309.936L707.598 603.148C705.977 620.779 685.878 630.044 671.419 619.825L430.967 449.876C416.508 439.657 418.534 417.618 434.614 410.206L702.02 286.943Z" fill="#DCF4FF"/>
<path d="M546.512 96.5122C547.58 78.839 567.379 68.9493 582.15 78.7108L699.189 156.054C713.961 165.816 712.626 187.907 696.786 195.819L571.286 258.506C555.446 266.418 536.982 254.216 538.05 236.543L546.512 96.5122Z" fill="#DCF4FF"/>
<path d="M236.299 673.7C230.983 656.811 245.944 640.502 263.228 644.343L342.531 661.967C359.815 665.809 366.459 686.92 354.491 699.967L299.575 759.834C287.607 772.881 266.002 768.08 260.687 751.191L236.299 673.7Z" fill="#DCF4FF"/>
<path d="M740.787 135.851C734.802 126.889 740.764 114.808 751.519 114.107L835.052 108.659C845.806 107.957 853.287 119.161 848.517 128.825L811.469 203.891C806.699 213.555 793.256 214.432 787.271 205.469L740.787 135.851Z" fill="#DCF4FF"/>
<path d="M110.969 458.265C105.06 441.575 119.434 424.747 136.843 427.974L263.381 451.432C280.79 454.659 288.177 475.522 276.677 488.985L193.093 586.841C181.593 600.304 159.832 596.27 153.923 579.58L110.969 458.265Z" fill="#DCF4FF"/>
<path d="M91.8412 755.486C81.7349 762.526 67.7971 755.986 66.7531 743.713L60.2451 667.207C59.2011 654.934 71.834 646.134 82.9843 651.366L152.495 683.983C163.645 689.215 164.95 704.556 154.844 711.596L91.8412 755.486Z" fill="#DCF4FF"/>
</svg>

