<svg width="412" height="423" viewBox="0 0 412 423" fill="none" xmlns="http://www.w3.org/2000/svg">
<path d="M0 34C0 15.2223 15.2223 0 34 0H162.895C169.801 0 176.543 2.10294 182.224 6.02901L289.5 80.1618L396.758 151.112C406.276 157.408 412 168.058 412 179.47V440C412 458.778 396.778 474 378 474H34C15.2223 474 0 458.778 0 440V34Z" fill="url(#paint0_linear_5894_4189)"/>
<path d="M196 17.4938L289.5 84.9701L0 429.52V431.098V240.749L196 17.4938Z" fill="url(#paint1_linear_5894_4189)"/>
<line x1="40" y1="140.25" x2="319" y2="140.25" stroke="white" stroke-opacity="0.4" stroke-width="1.5"/>
<path d="M338.5 115.793L400 153.696L184 431.515H85.5L338.5 115.793Z" fill="url(#paint2_linear_5894_4189)"/>
<path d="M411.5 291.981V431.515H386.5H289L411.5 291.981Z" fill="url(#paint3_linear_5894_4189)"/>
<line x1="40" y1="313.25" x2="375" y2="313.25" stroke="white" stroke-opacity="0.4" stroke-width="1.5"/>
<defs>
<linearGradient id="paint0_linear_5894_4189" x1="-5.5926e-06" y1="173.689" x2="140.835" y2="80.8674" gradientUnits="userSpaceOnUse">
<stop stop-color="#41BFAA"/>
<stop offset="1" stop-color="#17A4AD"/>
</linearGradient>
<linearGradient id="paint1_linear_5894_4189" x1="202.5" y1="358.624" x2="197.008" y2="184.308" gradientUnits="userSpaceOnUse">
<stop stop-color="#3EBDAB"/>
<stop offset="1" stop-color="#18A5AD"/>
</linearGradient>
<linearGradient id="paint2_linear_5894_4189" x1="304" y1="268.239" x2="271.435" y2="393.865" gradientUnits="userSpaceOnUse">
<stop stop-color="#18A5AD"/>
<stop offset="1" stop-color="#3EBDAB"/>
</linearGradient>
<linearGradient id="paint3_linear_5894_4189" x1="416.5" y1="321.137" x2="436.679" y2="441.805" gradientUnits="userSpaceOnUse">
<stop stop-color="#18A5AD"/>
<stop offset="1" stop-color="#3EBDAB"/>
</linearGradient>
</defs>
</svg>
