<svg width="147" height="108" viewBox="0 0 147 108" fill="none" xmlns="http://www.w3.org/2000/svg">
<path fill-rule="evenodd" clip-rule="evenodd" d="M46.6872 11.016C55.6044 10.2452 64.5497 9.84556 73.5 9.81818C82.712 9.81818 91.8064 10.2993 100.313 11.016C110.544 11.88 117.169 12.4691 122.226 13.6669C126.832 14.7567 129.409 16.2 131.624 18.468C131.859 18.7135 132.212 19.0865 132.427 19.3516C134.387 21.6098 135.661 24.4375 136.396 29.7785C137.18 35.5025 137.2 42.9644 137.2 54.2455C137.2 65.3891 137.18 72.7527 136.396 78.3982C135.671 83.6607 134.397 86.4589 132.427 88.7465L131.614 89.6302C129.36 91.9276 126.812 93.3513 122.324 94.4116C117.355 95.5898 110.877 96.1593 100.822 97.0036C92.3062 97.7105 83.0648 98.1818 73.5 98.1818C63.9352 98.1818 54.684 97.7105 46.1776 97.0036C36.1228 96.1593 29.645 95.5898 24.6764 94.4116C20.1782 93.3513 17.6302 91.9276 15.386 89.6302L14.5726 88.7465C12.6126 86.4589 11.3386 83.6607 10.6036 78.3982C9.8196 72.7527 9.8 65.3891 9.8 54.2455C9.8 42.9644 9.8196 35.4927 10.6036 29.7785C11.3386 24.4375 12.6126 21.6098 14.5726 19.3516C14.798 19.0865 15.141 18.7135 15.3762 18.468C17.591 16.2 20.1684 14.7567 24.7744 13.6669C29.841 12.4691 36.456 11.88 46.6872 11.016ZM0 54.2455C0 32.2331 0 21.2269 7.154 12.9305C7.5068 12.5182 7.987 11.9978 8.3692 11.6051C16.0132 3.76036 25.97 2.916 45.864 1.23709C54.586 0.490908 63.9646 0 73.5 0C83.0354 0 92.414 0.490908 101.136 1.23709C121.03 2.916 130.987 3.76036 138.631 11.6051C139.013 11.9978 139.483 12.5182 139.846 12.9305C147 21.2269 147 32.2331 147 54.2455C147 75.9927 147 86.8713 139.836 95.1676C139.441 95.6219 139.033 96.0639 138.611 96.4931C130.957 104.338 121.187 105.153 101.636 106.783C92.904 107.519 83.3784 108 73.5 108C63.6216 108 54.096 107.509 45.374 106.783C25.8132 105.153 16.0426 104.328 8.3888 96.4931C7.96704 96.0639 7.55851 95.6219 7.1638 95.1676C0 86.8713 0 75.9927 0 54.2455ZM51.45 33.2149C51.4486 32.8066 51.5488 32.4044 51.7417 32.0448C51.9346 31.6851 52.2139 31.3793 52.5545 31.1551C52.8951 30.9308 53.2861 30.7953 53.6922 30.7606C54.0982 30.726 54.5065 30.7934 54.88 30.9567L102.194 51.7516C104.154 52.6156 104.154 55.3844 102.194 56.2484L54.88 77.0335C54.5073 77.1964 54.0999 77.2639 53.6946 77.2297C53.2893 77.1956 52.8989 77.0609 52.5586 76.8378C52.2183 76.6147 51.9387 76.3103 51.7452 75.9519C51.5517 75.5935 51.4502 75.1925 51.45 74.7851V33.2149Z" fill="#ADDEF6"/>
</svg>
