<svg width="54" height="51" viewBox="0 0 54 51" fill="none" xmlns="http://www.w3.org/2000/svg">
<path d="M1.62 17H5.4C5.697 17 5.94 16.7609 5.94 16.4688V4.78125H17.82C18.117 4.78125 18.36 4.54219 18.36 4.25V0.53125C18.36 0.239062 18.117 0 17.82 0H5.67C3.132 0 1.08 2.01875 1.08 4.51562V16.4688C1.08 16.7609 1.323 17 1.62 17ZM36.18 4.78125H48.06V16.4688C48.06 16.7609 48.303 17 48.6 17H52.38C52.677 17 52.92 16.7609 52.92 16.4688V4.51562C52.92 2.01875 50.868 0 48.33 0H36.18C35.883 0 35.64 0.239062 35.64 0.53125V4.25C35.64 4.54219 35.883 4.78125 36.18 4.78125ZM17.82 46.2188H5.94V34.5312C5.94 34.2391 5.697 34 5.4 34H1.62C1.323 34 1.08 34.2391 1.08 34.5312V46.4844C1.08 48.9813 3.132 51 5.67 51H17.82C18.117 51 18.36 50.7609 18.36 50.4688V46.75C18.36 46.4578 18.117 46.2188 17.82 46.2188ZM52.38 34H48.6C48.303 34 48.06 34.2391 48.06 34.5312V46.2188H36.18C35.883 46.2188 35.64 46.4578 35.64 46.75V50.4688C35.64 50.7609 35.883 51 36.18 51H48.33C50.868 51 52.92 48.9813 52.92 46.4844V34.5312C52.92 34.2391 52.677 34 52.38 34ZM53.46 23.1094H0.54C0.243 23.1094 0 23.3484 0 23.6406V27.3594C0 27.6516 0.243 27.8906 0.54 27.8906H53.46C53.757 27.8906 54 27.6516 54 27.3594V23.6406C54 23.3484 53.757 23.1094 53.46 23.1094Z" fill="#16A4AD"/>
</svg>
