<svg width="48" height="48" viewBox="0 0 48 48" fill="none" xmlns="http://www.w3.org/2000/svg">
<path d="M18 16.5H21V25.5H18V16.5ZM10.5 19.5H13.5V25.5H10.5V19.5ZM3 10.5H6V25.5H3V10.5Z" fill="#1BA7AD"/>
<path d="M45.0008 42.879L33.6728 31.551C36.1481 28.5926 37.5033 24.8574 37.5008 21C37.5008 11.9025 30.0983 4.5 21.0008 4.5C17.3963 4.5 13.9733 5.64 11.0993 7.8L12.8993 10.2C15.2324 8.43925 18.0779 7.49093 21.0008 7.5C28.4453 7.5 34.5008 13.5555 34.5008 21C34.5008 28.4445 28.4453 34.5 21.0008 34.5C18.9035 34.5082 16.8337 34.0239 14.9578 33.086C13.082 32.148 11.4525 30.7827 10.2008 29.1L7.80078 30.903C9.33149 32.9586 11.3232 34.6264 13.6158 35.7722C15.9084 36.9179 18.4378 37.5097 21.0008 37.5C25.0103 37.5 28.6898 36.06 31.5518 33.672L42.8798 45L45.0008 42.879Z" fill="#1BA7AD"/>
</svg>
