<svg width="304" height="78" viewBox="0 0 304 78" fill="none" xmlns="http://www.w3.org/2000/svg">
<rect width="304" height="78" rx="39" transform="matrix(-1 0 0 1 304 0)" fill="url(#paint0_linear_5792_3076)"/>
<path d="M234.608 35.5108L242.987 42.6342L240.434 53.2873C240.293 53.8656 240.33 54.472 240.538 55.03C240.747 55.5881 241.119 56.0726 241.607 56.4224C242.096 56.7722 242.678 56.9716 243.281 56.9955C243.884 57.0193 244.481 56.8665 244.996 56.5564L254.399 50.8547L263.808 56.5564C264.323 56.8648 264.919 57.0161 265.521 56.9914C266.123 56.9666 266.705 56.7669 267.192 56.4174C267.679 56.0679 268.05 55.5842 268.259 55.0272C268.468 54.4702 268.504 53.8648 268.364 53.2873L265.802 42.6342L274.181 35.5108C274.637 35.1228 274.967 34.6112 275.129 34.0398C275.291 33.4684 275.279 32.8625 275.094 32.2979C274.909 31.7333 274.559 31.235 274.088 30.8651C273.617 30.4952 273.046 30.2702 272.446 30.2182L261.46 29.345L257.222 19.2404C256.993 18.6898 256.602 18.2187 256.101 17.8872C255.599 17.5557 255.008 17.3787 254.404 17.3787C253.8 17.3787 253.209 17.5557 252.707 17.8872C252.206 18.2187 251.815 18.6898 251.586 19.2404L247.35 29.345L236.364 30.2182C235.763 30.2683 235.19 30.492 234.717 30.8614C234.245 31.2308 233.893 31.7293 233.707 32.2946C233.521 32.8599 233.508 33.4668 233.67 34.0392C233.832 34.6117 234.162 35.1242 234.619 35.5126L234.608 35.5108Z" fill="#6FD0F1"/>
<path d="M183.991 35.5108L192.37 42.6342L189.817 53.2873C189.676 53.8656 189.712 54.472 189.921 55.03C190.13 55.5881 190.502 56.0726 190.99 56.4224C191.478 56.7722 192.061 56.9716 192.664 56.9955C193.267 57.0193 193.864 56.8665 194.379 56.5564L203.782 50.8547L213.191 56.5564C213.706 56.8648 214.302 57.0161 214.904 56.9914C215.506 56.9666 216.087 56.7669 216.575 56.4174C217.062 56.0679 217.433 55.5842 217.642 55.0272C217.85 54.4702 217.887 53.8648 217.747 53.2873L215.185 42.6342L223.564 35.5108C224.02 35.1228 224.349 34.6112 224.512 34.0398C224.674 33.4684 224.662 32.8625 224.477 32.2979C224.291 31.7333 223.942 31.235 223.471 30.8651C223 30.4952 222.429 30.2702 221.829 30.2182L210.843 29.345L206.605 19.2404C206.376 18.6898 205.985 18.2187 205.483 17.8872C204.982 17.5557 204.391 17.3787 203.787 17.3787C203.183 17.3787 202.592 17.5557 202.09 17.8872C201.588 18.2187 201.198 18.6898 200.969 19.2404L196.733 29.345L185.747 30.2182C185.145 30.2683 184.573 30.492 184.1 30.8614C183.628 31.2308 183.276 31.7293 183.09 32.2946C182.904 32.8599 182.891 33.4668 183.053 34.0392C183.215 34.6117 183.545 35.1242 184.002 35.5126L183.991 35.5108Z" fill="#6FD0F1"/>
<path d="M133.37 35.5108L141.749 42.6342L139.196 53.2873C139.055 53.8656 139.091 54.472 139.3 55.03C139.509 55.5881 139.881 56.0726 140.369 56.4224C140.857 56.7722 141.44 56.9716 142.043 56.9955C142.646 57.0193 143.243 56.8665 143.758 56.5564L153.161 50.8547L162.57 56.5564C163.085 56.8648 163.681 57.0161 164.283 56.9914C164.885 56.9666 165.466 56.7669 165.953 56.4174C166.441 56.0679 166.812 55.5842 167.021 55.0272C167.229 54.4702 167.266 53.8648 167.126 53.2873L164.564 42.6342L172.943 35.5108C173.399 35.1228 173.728 34.6112 173.891 34.0398C174.053 33.4684 174.041 32.8625 173.855 32.2979C173.67 31.7333 173.321 31.235 172.85 30.8651C172.379 30.4952 171.808 30.2702 171.208 30.2182L160.222 29.345L155.984 19.2404C155.754 18.6898 155.364 18.2187 154.862 17.8872C154.36 17.5557 153.77 17.3787 153.166 17.3787C152.562 17.3787 151.971 17.5557 151.469 17.8872C150.967 18.2187 150.577 18.6898 150.348 19.2404L146.111 29.345L135.125 30.2182C134.524 30.2683 133.952 30.492 133.479 30.8614C133.006 31.2308 132.655 31.7293 132.469 32.2946C132.282 32.8599 132.27 33.4668 132.432 34.0392C132.594 34.6117 132.924 35.1242 133.381 35.5126L133.37 35.5108Z" fill="#6FD0F1"/>
<path d="M82.7563 35.5108L91.1354 42.6342L88.5826 53.2873C88.4417 53.8656 88.478 54.472 88.6868 55.03C88.8956 55.5881 89.2676 56.0726 89.7558 56.4224C90.2439 56.7722 90.8264 56.9716 91.4295 56.9955C92.0327 57.0193 92.6295 56.8665 93.1445 56.5564L102.548 50.8547L111.957 56.5564C112.472 56.8648 113.068 57.0161 113.67 56.9914C114.272 56.9666 114.853 56.7669 115.34 56.4174C115.827 56.0679 116.199 55.5842 116.407 55.0272C116.616 54.4702 116.653 53.8648 116.513 53.2873L113.951 42.6342L122.33 35.5108C122.785 35.1228 123.115 34.6112 123.277 34.0398C123.44 33.4684 123.427 32.8625 123.242 32.2979C123.057 31.7333 122.707 31.235 122.236 30.8651C121.765 30.4952 121.194 30.2702 120.594 30.2182L109.609 29.345L105.371 19.2404C105.141 18.6898 104.751 18.2187 104.249 17.8872C103.747 17.5557 103.157 17.3787 102.552 17.3787C101.948 17.3787 101.358 17.5557 100.856 17.8872C100.354 18.2187 99.9636 18.6898 99.7342 19.2404L95.4981 29.345L84.5122 30.2182C83.9111 30.2683 83.3384 30.492 82.8658 30.8614C82.3932 31.2308 82.0417 31.7293 81.8554 32.2946C81.6691 32.8599 81.6563 33.4668 81.8186 34.0392C81.9808 34.6117 82.3109 35.1242 82.7675 35.5126L82.7563 35.5108Z" fill="#6FD0F1"/>
<path d="M32.229 35.5108L40.6081 42.6342L38.0553 53.2873C37.9144 53.8656 37.9507 54.472 38.1595 55.03C38.3683 55.5881 38.7403 56.0726 39.2284 56.4224C39.7166 56.7722 40.2991 56.9716 40.9022 56.9955C41.5054 57.0193 42.1022 56.8665 42.6172 56.5564L52.0204 50.8547L61.4292 56.5564C61.9442 56.8648 62.5403 57.0161 63.1424 56.9914C63.7445 56.9666 64.3257 56.7669 64.8129 56.4174C65.3 56.0679 65.6713 55.5842 65.88 55.0272C66.0887 54.4702 66.1254 53.8648 65.9856 53.2873L63.4234 42.6342L71.8025 35.5108C72.2582 35.1228 72.5877 34.6112 72.7499 34.0398C72.9122 33.4684 72.9 32.8625 72.7149 32.2979C72.5297 31.7333 72.1799 31.235 71.709 30.8651C71.2381 30.4952 70.667 30.2702 70.0671 30.2182L59.0812 29.345L54.8432 19.2404C54.6138 18.6898 54.2234 18.2187 53.7216 17.8872C53.2198 17.5557 52.6292 17.3787 52.0251 17.3787C51.4209 17.3787 50.8303 17.5557 50.3285 17.8872C49.8267 18.2187 49.4363 18.6898 49.2069 19.2404L44.9708 29.345L33.9849 30.2182C33.3838 30.2683 32.811 30.492 32.3384 30.8614C31.8658 31.2308 31.5144 31.7293 31.3281 32.2946C31.1418 32.8599 31.129 33.4668 31.2912 34.0392C31.4535 34.6117 31.7836 35.1242 32.2402 35.5126L32.229 35.5108Z" fill="#6FD0F1"/>
<defs>
<linearGradient id="paint0_linear_5792_3076" x1="304" y1="39" x2="0" y2="39" gradientUnits="userSpaceOnUse">
<stop stop-color="white" stop-opacity="0"/>
<stop offset="0.485577" stop-color="white" stop-opacity="0.6"/>
<stop offset="1" stop-color="white" stop-opacity="0"/>
</linearGradient>
</defs>
</svg>
