<svg width="852" height="1019" viewBox="0 0 852 1019" fill="none" xmlns="http://www.w3.org/2000/svg">
<path d="M102.016 328.228C88.079 317.308 67.5472 325.57 65.0585 343.099L23.6704 634.625C21.1817 652.154 38.6027 665.804 55.0281 659.195L328.191 549.275C344.616 542.666 347.727 520.754 333.79 509.834L102.016 328.228Z" fill="#DCF4FF"/>
<path d="M297.25 178.791C300.286 161.348 283.301 147.159 266.676 153.251L134.956 201.521C118.332 207.613 114.537 229.416 128.125 240.768L235.787 330.706C249.375 342.057 270.156 334.442 273.192 316.999L297.25 178.791Z" fill="#DCF4FF"/>
<path d="M465.999 811.957C475.065 796.75 464.269 777.43 446.565 777.182L365.335 776.044C347.631 775.796 336.298 794.806 344.935 810.261L384.565 881.178C393.202 896.634 415.332 896.944 424.398 881.736L465.999 811.957Z" fill="#DCF4FF"/>
<path d="M121.125 144.911C129.015 137.569 125.999 124.44 115.696 121.277L35.6706 96.7132C25.3678 93.5507 15.5051 102.727 17.9177 113.231L36.6574 194.817C39.07 205.321 51.9484 209.274 59.8386 201.933L121.125 144.911Z" fill="#DCF4FF"/>
<path d="M637.629 631.23C647.228 616.353 637.122 596.663 619.438 595.789L490.901 589.435C473.217 588.561 461.218 607.158 469.303 622.909L528.069 737.403C536.154 753.155 558.258 754.248 567.857 739.37L637.629 631.23Z" fill="#DCF4FF"/>
<path d="M587.703 924.851C595.914 934.032 610.984 930.883 614.83 919.182L638.805 846.238C642.651 834.537 632.388 823.061 620.332 825.581L545.173 841.289C533.117 843.809 528.31 858.435 536.52 867.616L587.703 924.851Z" fill="#DCF4FF"/>
</svg>
