<svg width="1117" height="951" viewBox="0 0 1117 951" fill="none" xmlns="http://www.w3.org/2000/svg">
<path d="M760.598 394.945C778.175 397.074 786.855 417.433 776.223 431.59L599.4 667.034C588.768 681.192 566.797 678.53 559.852 662.243L444.363 391.389C437.419 375.102 450.709 357.405 468.286 359.534L760.598 394.945Z" fill="#DCF4FF"/>
<path d="M929.265 247.494C944.294 238.134 963.82 248.553 964.411 266.248L969.1 406.456C969.692 424.151 950.905 435.851 935.285 427.516L811.517 361.473C795.897 353.138 795.157 331.018 810.186 321.658L929.265 247.494Z" fill="#DCF4FF"/>
<path d="M261.524 416.01C264.224 398.512 284.854 390.498 298.658 401.585L361.995 452.459C375.799 463.546 372.424 485.419 355.92 491.83L280.194 521.245C263.69 527.656 246.435 513.796 249.135 496.298L261.524 416.01Z" fill="#DCF4FF"/>
<path d="M1066.87 377.772C1075.48 371.281 1087.88 376.538 1089.2 387.234L1099.45 470.314C1100.77 481.011 1090.02 489.124 1080.09 484.919L1003.02 452.257C993.095 448.052 991.445 434.682 1000.05 428.191L1066.87 377.772Z" fill="#DCF4FF"/>
<path d="M515.405 146.337C525.593 131.857 547.636 133.835 555.082 149.899L609.208 266.658C616.655 282.721 603.92 300.822 586.285 299.239L458.106 287.733C440.471 286.151 431.163 266.071 441.351 251.591L515.405 146.337Z" fill="#DCF4FF"/>
<path d="M325.061 243.08C334.932 238.753 345.785 246.734 344.597 257.445L336.298 332.292C335.111 343.004 322.773 348.413 314.09 342.029L253.42 297.418C244.737 291.034 246.222 277.644 256.092 273.317L325.061 243.08Z" fill="#DCF4FF"/>
<path d="M139.495 260.396C128.807 266.517 115.5 258.772 115.544 246.455L115.695 203.424C115.739 191.107 129.099 183.456 139.744 189.652L176.934 211.299C187.579 217.495 187.525 232.891 176.836 239.012L139.495 260.396Z" fill="#DCF4FF"/>
</svg>
