<svg width="44" height="44" viewBox="0 0 44 44" fill="none" xmlns="http://www.w3.org/2000/svg">
<path d="M26.3342 5.90004C24.291 3.85304 23.2675 2.83337 21.9987 2.83337C20.7299 2.83337 19.7064 3.85496 17.6632 5.90004C16.4365 7.12671 15.2214 7.69404 13.4734 7.69404C11.9477 7.69404 9.7742 7.39887 8.58203 8.60062C7.39753 9.79471 7.6927 11.9586 7.6927 13.4747C7.6927 15.2227 7.12345 16.4379 5.89678 17.6645C3.85361 19.7077 2.83203 20.7312 2.83203 22C2.83203 23.2689 3.85361 24.2924 5.8987 26.3355C7.27103 27.7098 7.6927 28.5972 7.6927 30.5254C7.6927 32.051 7.39753 34.2245 8.59928 35.4167C9.79336 36.5993 11.9573 36.306 13.4734 36.306C15.3344 36.306 16.2334 36.6702 17.5616 37.9985C18.6924 39.1293 20.2085 41.1667 21.9987 41.1667C23.7889 41.1667 25.3049 39.1293 26.4358 37.9985C27.7659 36.6702 28.6629 36.306 30.524 36.306C32.0401 36.306 34.204 36.6012 35.3981 35.4167M35.3981 35.4167C36.5999 34.2245 36.3047 32.051 36.3047 30.5254C36.3047 28.5972 36.7264 27.7098 38.0987 26.3355C40.1438 24.2924 41.1654 23.2689 41.1654 22C41.1654 20.7312 40.1438 19.7077 38.1006 17.6645M35.3981 35.4167H35.4154" stroke="#41BFAA" stroke-width="4" stroke-linecap="round" stroke-linejoin="round"/>
<path d="M14.332 18.757C14.332 18.757 18.6445 18.1667 21.9987 25.8334C21.9987 25.8334 31.6951 6.66671 41.1654 2.83337" stroke="#41BFAA" stroke-width="4" stroke-linecap="round" stroke-linejoin="round"/>
</svg>
