<svg width="58" height="47" viewBox="0 0 58 47" fill="none" xmlns="http://www.w3.org/2000/svg">
<path d="M12.832 12.8301H23.662" stroke="#16A4AD" stroke-width="2.5" stroke-linecap="round" stroke-linejoin="round"/>
<path d="M56.1478 19.5988C56.1478 19.3904 56.1478 18.1558 56.1424 18.0691C56.0449 16.7127 54.8834 15.6324 53.4214 15.543C53.3293 15.5376 53.2183 15.5376 52.9909 15.5376H45.946C41.1104 15.5376 37.1953 19.1738 37.1953 23.6601C37.1953 28.1464 41.1131 31.7826 45.9405 31.7826H52.9882C53.2156 31.7826 53.3266 31.7826 53.4214 31.7772C54.8834 31.6878 56.0476 30.6075 56.1424 29.2511C56.1478 29.1644 56.1478 27.9298 56.1478 27.7213" stroke="#16A4AD" stroke-width="2.5" stroke-linecap="round"/>
<path d="M45.3208 26.3676C46.8161 26.3676 48.0283 25.1554 48.0283 23.6601C48.0283 22.1648 46.8161 20.9526 45.3208 20.9526C43.8255 20.9526 42.6133 22.1648 42.6133 23.6601C42.6133 25.1554 43.8255 26.3676 45.3208 26.3676Z" fill="#16A4AD"/>
<path d="M31.7825 2C41.9925 2 47.0988 2 50.2693 5.17319C52.4597 7.36085 53.1393 10.4691 53.3477 15.5375M23.66 45.32H31.7825C41.9925 45.32 47.0988 45.32 50.2693 42.1468C52.4597 39.9591 53.1393 36.8509 53.3477 31.7825M20.9525 2C12.5213 2.02707 8.05126 2.29241 5.17319 5.17319C2 8.34367 2 13.45 2 23.66C2 33.87 2 38.9763 5.17319 42.1468C6.94119 43.9175 9.31025 44.7 12.83 45.0438" stroke="#16A4AD" stroke-width="2.5" stroke-linecap="round"/>
</svg>
