<svg width="59" height="53" viewBox="0 0 59 53" fill="none" xmlns="http://www.w3.org/2000/svg">
<path d="M46.5688 18.2307H41.1692M41.1692 18.2307H35.7695M41.1692 18.2307V12.8311M41.1692 18.2307V23.6304" stroke="#16A4AD" stroke-width="1.5" stroke-linecap="round"/>
<path d="M29.0231 8.98093L27.5436 10.3632C27.7331 10.566 27.9621 10.7276 28.2166 10.8381C28.4712 10.9486 28.7457 11.0057 29.0231 11.0057C29.3006 11.0057 29.5751 10.9486 29.8296 10.8381C30.0841 10.7276 30.3132 10.566 30.5026 10.3632L29.0231 8.98093ZM3.78516 30.8711C3.91874 31.1065 4.09815 31.3127 4.31279 31.4776C4.52743 31.6424 4.77294 31.7626 5.0348 31.8309C5.29667 31.8993 5.56959 31.9144 5.83742 31.8755C6.10524 31.8366 6.36255 31.7444 6.59413 31.6043C6.82571 31.4642 7.02686 31.2792 7.18569 31.06C7.34452 30.8409 7.45781 30.5921 7.51887 30.3285C7.57992 30.0648 7.5875 29.7916 7.54115 29.5249C7.4948 29.2583 7.39547 29.0036 7.24903 28.776L3.78516 30.8711ZM14.274 37.591C14.091 37.3904 13.8696 37.2287 13.6229 37.1154C13.3762 37.0021 13.1092 36.9396 12.8378 36.9315C12.5664 36.9235 12.2962 36.9701 12.0433 37.0687C11.7903 37.1672 11.5597 37.3155 11.3652 37.505C11.1707 37.6944 11.0163 37.921 10.9111 38.1713C10.806 38.4216 10.7522 38.6904 10.7531 38.9619C10.754 39.2334 10.8094 39.5019 10.9161 39.7516C11.0228 40.0012 11.1787 40.2268 11.3744 40.415L14.274 37.591ZM4.04974 19.0891C4.04974 11.2461 7.47312 6.39989 11.7064 4.7395C15.9317 3.08451 21.8416 4.26703 27.5436 10.3632L30.5026 7.59862C24.0554 0.703261 16.4662 -1.4728 10.2296 0.967844C4.00114 3.40849 0 10.1095 0 19.0891H4.04974ZM38.4995 47.8206C42.5304 44.5511 47.3576 40.1693 51.1968 35.2745C54.9954 30.431 58.0462 24.8019 58.0462 19.0837H53.9965C53.9965 23.4358 51.6207 28.1659 48.0083 32.7745C44.4337 37.3345 39.8656 41.5003 35.9509 44.6753L38.4995 47.8206ZM58.0462 19.0837C58.0462 10.1068 54.0451 3.40579 47.8139 0.967844C41.5773 -1.4755 33.9908 0.697861 27.5436 7.59592L30.5026 10.3632C36.2047 4.26703 42.1146 3.08181 46.3398 4.7368C50.5731 6.39449 53.9965 11.2434 53.9965 19.0837H58.0462ZM19.5467 47.8233C22.9755 50.6095 25.3568 52.6533 29.0231 52.6533V48.6036C27.0711 48.6036 25.8562 47.7288 22.0954 44.678L19.5467 47.8233ZM35.9509 44.6753C32.19 47.7261 30.9751 48.6036 29.0231 48.6036V52.6533C32.6895 52.6533 35.0734 50.6095 38.5022 47.8233L35.9509 44.6753ZM7.25173 28.776C5.22956 25.4391 4.04974 22.1588 4.04974 19.0891H0C0 23.1712 1.5551 27.1886 3.78516 30.8711L7.25173 28.776ZM22.0954 44.678C19.3545 42.4676 16.743 40.1014 14.274 37.591L11.3744 40.415C13.951 43.0414 16.6816 45.515 19.5467 47.8233L22.0954 44.678Z" fill="#16A4AD"/>
</svg>
