<svg width="182" height="182" viewBox="0 0 182 182" fill="none" xmlns="http://www.w3.org/2000/svg">
<g filter="url(#filter0_d_5927_2530)">
<rect x="21.4883" y="70.0862" width="105.35" height="105.35" rx="15" transform="rotate(-31.764 21.4883 70.0862)" fill="#3DBCAA"/>
</g>
<path fill-rule="evenodd" clip-rule="evenodd" d="M85.5624 72.672C88.5348 72.4151 91.5166 72.2819 94.5 72.2727C97.5707 72.2727 100.602 72.4331 103.438 72.672C106.848 72.96 109.056 73.1564 110.742 73.5556C112.277 73.9189 113.136 74.4 113.875 75.156C113.953 75.2378 114.071 75.3622 114.142 75.4505C114.796 76.2033 115.22 77.1458 115.465 78.9262C115.727 80.8342 115.733 83.3215 115.733 87.0818C115.733 90.7964 115.727 93.2509 115.465 95.1327C115.224 96.8869 114.799 97.8196 114.142 98.5822L113.871 98.8767C113.12 99.6425 112.271 100.117 110.775 100.471C109.118 100.863 106.959 101.053 103.607 101.335C100.769 101.57 97.6883 101.727 94.5 101.727C91.3117 101.727 88.228 101.57 85.3925 101.335C82.0409 101.053 79.8817 100.863 78.2255 100.471C76.7261 100.117 75.8767 99.6425 75.1287 98.8767L74.8575 98.5822C74.2042 97.8196 73.7795 96.8869 73.5345 95.1327C73.2732 93.2509 73.2667 90.7964 73.2667 87.0818C73.2667 83.3215 73.2732 80.8309 73.5345 78.9262C73.7795 77.1458 74.2042 76.2033 74.8575 75.4505C74.9327 75.3622 75.047 75.2378 75.1254 75.156C75.8637 74.4 76.7228 73.9189 78.2581 73.5556C79.947 73.1564 82.152 72.96 85.5624 72.672ZM70 87.0818C70 79.7444 70 76.0756 72.3847 73.3102C72.5023 73.1727 72.6623 72.9993 72.7897 72.8684C75.3377 70.2535 78.6567 69.972 85.288 69.4124C88.1953 69.1636 91.3215 69 94.5 69C97.6785 69 100.805 69.1636 103.712 69.4124C110.343 69.972 113.662 70.2535 116.21 72.8684C116.338 72.9993 116.494 73.1727 116.615 73.3102C119 76.0756 119 79.7444 119 87.0818C119 94.3309 119 97.9571 116.612 100.723C116.48 100.874 116.344 101.021 116.204 101.164C113.652 103.779 110.396 104.051 103.879 104.594C100.968 104.84 97.7928 105 94.5 105C91.2072 105 88.032 104.836 85.1247 104.594C78.6044 104.051 75.3475 103.776 72.7963 101.164C72.6557 101.021 72.5195 100.874 72.3879 100.723C70 97.9571 70 94.3309 70 87.0818ZM87.15 80.0716C87.1495 79.9355 87.1829 79.8015 87.2472 79.6816C87.3115 79.5617 87.4046 79.4598 87.5182 79.385C87.6317 79.3103 87.762 79.2651 87.8974 79.2535C88.0327 79.242 88.1688 79.2645 88.2933 79.3189L104.065 86.2505C104.718 86.5385 104.718 87.4615 104.065 87.7495L88.2933 94.6778C88.1691 94.7321 88.0333 94.7546 87.8982 94.7432C87.7631 94.7319 87.633 94.687 87.5195 94.6126C87.4061 94.5382 87.3129 94.4368 87.2484 94.3173C87.1839 94.1978 87.1501 94.0642 87.15 93.9284V80.0716Z" fill="white"/>
<defs>
<filter id="filter0_d_5927_2530" x="0.536718" y="0.67539" width="180.934" height="180.934" filterUnits="userSpaceOnUse" color-interpolation-filters="sRGB">
<feFlood flood-opacity="0" result="BackgroundImageFix"/>
<feColorMatrix in="SourceAlpha" type="matrix" values="0 0 0 0 0 0 0 0 0 0 0 0 0 0 0 0 0 0 127 0" result="hardAlpha"/>
<feOffset dx="-3" dy="4"/>
<feGaussianBlur stdDeviation="11.8"/>
<feComposite in2="hardAlpha" operator="out"/>
<feColorMatrix type="matrix" values="0 0 0 0 0 0 0 0 0 0 0 0 0 0 0 0 0 0 0.25 0"/>
<feBlend mode="normal" in2="BackgroundImageFix" result="effect1_dropShadow_5927_2530"/>
<feBlend mode="normal" in="SourceGraphic" in2="effect1_dropShadow_5927_2530" result="shape"/>
</filter>
</defs>
</svg>
